<svg width="245" height="29" viewBox="0 0 245 29" fill="none" xmlns="http://www.w3.org/2000/svg">
<path d="M9.366 2.268C10.542 2.268 12.054 2.31 13.65 2.604C15.498 2.94 17.472 3.57 18.984 4.872C20.538 6.174 21.588 8.19 21.588 10.836C21.588 14.448 20.412 16.758 19.11 18.102C18.816 18.438 18.48 18.69 18.186 18.942L26.88 27.594H17.01L7.434 18.06V27.552H4.914V4.788C3.864 4.746 3.066 4.788 2.478 4.872V27.552H0V2.688L1.008 2.52C1.008 2.52 3.78 2.1 6.93 2.436C7.35 2.394 8.19 2.268 9.366 2.268ZM7.434 4.998V17.808L9.492 17.388C9.492 17.388 10.5 17.178 11.592 16.296C12.684 15.372 13.818 13.86 13.818 10.836C13.818 8.82 13.146 7.686 12.096 6.762C11.004 5.88 9.492 5.334 7.896 5.04C7.728 4.998 7.602 4.998 7.434 4.998ZM14.07 5.292C15.372 6.594 16.254 8.442 16.254 10.836C16.254 14.532 14.742 16.884 13.188 18.186C12.726 18.564 12.306 18.816 11.928 19.068L18.018 25.116H20.916L13.65 17.934L15.792 17.43C15.792 17.43 16.464 17.262 17.346 16.38C18.186 15.498 19.11 13.944 19.11 10.836C19.11 8.82 18.438 7.686 17.388 6.762C16.548 6.048 15.33 5.586 14.07 5.292Z" fill="white"/>
<path d="M31.7871 2.646H52.5351V5.166H39.5991V7.644H52.5351V10.164H39.5991V12.936H44.9331V20.412H39.5991V25.032H52.5351V27.552H31.7871V2.646ZM34.3071 5.166V7.644H37.0791V5.166H34.3071ZM34.3071 10.164V12.936H37.0791V10.164H34.3071ZM34.3071 15.456V17.892H37.0791V15.456H34.3071ZM39.5991 15.456V17.892H42.4131V15.456H39.5991ZM34.3071 20.412V25.032H37.0791V20.412H34.3071Z" fill="white"/>
<path d="M57.9003 2.688H81.8403V10.248H74.0283V27.552H71.5083V10.206H67.9803V27.552H65.4603V10.206H57.9003V7.686L65.4603 7.644V5.208H57.9003V2.688ZM67.9803 5.208V7.644H71.5083V5.208H67.9803ZM74.0283 5.208V7.728H79.3203V5.208H74.0283Z" fill="white"/>
<path d="M87.5684 2.73H95.0024V27.552H92.5244V5.208H90.0464V27.552H87.5684V2.73Z" fill="white"/>
<path d="M113.153 2.352C116.345 2.352 119.579 3.612 122.057 6.048L122.939 6.972L117.605 12.264L116.723 11.382C115.715 10.374 114.413 9.912 113.111 9.912C111.851 9.912 110.549 10.374 109.541 11.382C108.533 12.39 108.071 13.692 108.071 14.952C108.071 16.254 108.533 18.06 109.541 19.068C110.549 20.076 111.851 20.538 113.111 20.538C114.413 20.538 115.715 20.076 116.723 19.068L118.487 20.832C117.017 22.344 115.085 23.058 113.111 23.058C111.599 23.058 110.045 22.596 108.743 21.672L106.937 23.436C108.785 24.864 110.927 25.536 113.111 25.536C115.715 25.536 118.277 24.57 120.251 22.596L122.057 24.402C119.579 26.838 116.345 28.056 113.153 28.056C109.919 28.056 106.685 26.838 104.207 24.402C101.771 21.924 100.553 18.186 100.553 14.952C100.553 11.76 101.771 8.526 104.207 6.048C106.685 3.612 109.919 2.352 113.153 2.352ZM113.153 4.872C110.549 4.872 107.987 5.88 106.013 7.854C104.039 9.828 103.031 12.39 103.031 14.952C103.031 17.178 103.745 19.824 105.173 21.672L106.937 19.866C106.013 18.564 105.551 16.506 105.551 14.952C105.551 13.02 106.307 11.088 107.777 9.618C109.247 8.148 111.179 7.392 113.153 7.392C114.665 7.392 116.219 7.896 117.521 8.82L119.285 7.056C117.479 5.628 115.295 4.872 113.153 4.872Z" fill="white"/>
<path d="M127.839 2.646H134.937V11.802C134.937 15.54 136.995 19.236 140.061 20.958C143.127 19.236 145.185 15.54 145.185 11.802V2.73H147.705V11.802C147.705 15.792 145.857 19.74 142.917 22.05C143.631 22.218 144.303 22.302 145.017 22.302C146.151 22.302 147.201 22.092 148.209 21.756C149.637 20.034 150.519 17.808 150.519 15.372V2.73H153.039V15.372C153.039 18.564 151.863 21.462 149.931 23.646C147.621 26.292 144.219 27.972 140.439 27.972C136.785 27.972 133.551 26.46 131.241 24.024C129.099 21.756 127.839 18.732 127.839 15.372V2.646ZM130.317 5.166V15.372C130.317 18.06 131.367 20.496 133.089 22.302C134.895 24.234 137.499 25.452 140.397 25.452C141.699 25.452 142.917 25.2 144.051 24.738C142.455 24.612 140.901 24.192 139.515 23.52C135.315 21.504 132.417 16.758 132.417 11.802V5.166H130.317Z" fill="white"/>
<path d="M159.141 27.552V2.646H167.331V19.74H175.983V22.26H164.811V5.166H161.661V25.032H175.983V27.552H159.141Z" fill="white"/>
<path d="M181.364 2.646H188.462V11.802C188.462 15.54 190.52 19.236 193.586 20.958C196.652 19.236 198.71 15.54 198.71 11.802V2.73H201.23V11.802C201.23 15.792 199.382 19.74 196.442 22.05C197.156 22.218 197.828 22.302 198.542 22.302C199.676 22.302 200.726 22.092 201.734 21.756C203.162 20.034 204.044 17.808 204.044 15.372V2.73H206.564V15.372C206.564 18.564 205.388 21.462 203.456 23.646C201.146 26.292 197.744 27.972 193.964 27.972C190.31 27.972 187.076 26.46 184.766 24.024C182.624 21.756 181.364 18.732 181.364 15.372V2.646ZM183.842 5.166V15.372C183.842 18.06 184.892 20.496 186.614 22.302C188.42 24.234 191.024 25.452 193.922 25.452C195.224 25.452 196.442 25.2 197.576 24.738C195.98 24.612 194.426 24.192 193.04 23.52C188.84 21.504 185.942 16.758 185.942 11.802V5.166H183.842Z" fill="white"/>
<path d="M212.666 0L225.434 21.168L238.244 0L238.202 2.646V9.45L244.25 0L244.208 2.646V27.552H235.682V18.858L231.44 26.166L228.458 20.958L225.434 26.166L221.192 18.816V27.552H218.672V14.49L215.186 8.4V27.552H212.666V0ZM235.682 8.4L229.886 18.438L231.44 21.126L235.682 13.818V8.4ZM241.688 8.4L238.202 14.49V25.326H241.688V8.4Z" fill="white"/>
</svg>
